<?xml version="1.0" encoding="UTF-8"?>
<svg version="1.1" xmlns="http://www.w3.org/2000/svg" width="512" height="512">
<path d="M0 0 C0.77472656 0.05542969 1.54945313 0.11085937 2.34765625 0.16796875 C2.67378906 1.29074219 2.99992187 2.41351563 3.3359375 3.5703125 C6.03002146 12.91782916 6.03002146 12.91782916 9.03515625 22.16796875 C9.9658521 24.86870826 10.67883038 27.52767425 11.2578125 30.32421875 C12.313567 35.17880857 13.68478678 39.9073437 15.09765625 44.66796875 C18.33077106 55.75651868 21.00938995 66.95636501 23.63964844 78.20043945 C24.37818945 81.29594499 25.15464942 84.38026836 25.9375 87.46484375 C27.01298378 91.74351203 27.95249496 96.0095586 28.72265625 100.35546875 C29.61140127 105.30193076 30.55716392 110.23126485 31.578125 115.15234375 C31.79742676 116.21686768 32.01672852 117.2813916 32.24267578 118.37817383 C32.67161265 120.45210085 33.10574863 122.52496308 33.54638672 124.59643555 C34.90159066 131.18979734 35.83576064 137.78135396 36.5814209 144.4666748 C37.17429336 149.77428092 37.85673272 155.06317676 38.6015625 160.3515625 C38.70862015 161.11333298 38.8156778 161.87510345 38.92597961 162.65995789 C39.36364827 165.76248224 39.80480797 168.86450639 40.24584961 171.96655273 C40.57438816 174.28216156 40.90052572 176.59810031 41.2265625 178.9140625 C41.324496 179.59657578 41.4224295 180.27908905 41.52333069 180.98228455 C42.72477833 189.52224134 43.49523759 197.98101571 43.54052734 206.60791016 C43.54870483 207.49431183 43.55688232 208.3807135 43.56530762 209.29397583 C43.58992778 212.20248803 43.60663497 215.1109515 43.62109375 218.01953125 C43.62641743 219.02954571 43.6317411 220.03956017 43.6372261 221.08018112 C43.663882 226.44683823 43.68326401 231.81347292 43.69775391 237.18017578 C43.71096266 241.54953556 43.73858043 245.91841377 43.77978516 250.28759766 C44.00355038 274.57079856 43.78699939 298.04743105 38.99633789 321.92460632 C38.1188918 326.31177485 37.34700261 330.71587394 36.57017517 335.1217804 C33.09390134 354.10213834 27.39303566 372.63442152 19.34765625 390.16796875 C18.73435306 391.76866462 18.1297294 393.37272162 17.53515625 394.98046875 C8.60895376 417.51913005 -6.04042976 436.79989367 -22.65234375 454.16796875 C-23.30074219 454.85761719 -23.94914062 455.54726563 -24.6171875 456.2578125 C-44.13884392 476.51440187 -73.90992138 492.02026199 -102.2734375 493.3359375 C-129.2112924 493.47379756 -160.73195679 488.42085651 -181.65234375 470.16796875 C-183.31855858 469.16721607 -184.98520954 468.1671891 -186.65234375 467.16796875 C-193.92787386 461.24096739 -200.06545639 454.69185717 -205.65234375 447.16796875 C-203.92738234 443.37935487 -201.96539799 441.71054526 -198.65234375 439.16796875 C-197.52397628 438.05894472 -196.39863445 436.94670145 -195.28735352 435.82055664 C-193.217227 433.72817402 -191.1255745 431.65804613 -189.03515625 429.5859375 C-187.28248335 427.84251702 -185.52988119 426.0990254 -183.77734375 424.35546875 C-182.90464844 423.49115234 -182.03195312 422.62683594 -181.1328125 421.73632812 C-176.08933135 416.71180743 -171.26217487 411.59176108 -166.65234375 406.16796875 C-165.63223914 404.9915552 -164.61142484 403.81575662 -163.58984375 402.640625 C-158.09796364 396.27693068 -152.74005833 389.86233004 -147.65234375 383.16796875 C-146.56955766 381.79253777 -145.4862015 380.41755541 -144.40234375 379.04296875 C-137.19485746 369.76231786 -130.25475334 360.28186059 -123.8125 350.453125 C-122.15094468 347.92623887 -120.47106864 345.41656206 -118.7734375 342.9140625 C-113.06835759 334.48352262 -107.68464157 326.02314767 -102.74755859 317.11669922 C-101.47406225 314.85075009 -100.16899969 312.60463468 -98.859375 310.359375 C-98.37025635 309.52075928 -97.8811377 308.68214355 -97.37719727 307.81811523 C-96.42201562 306.1827165 -95.46555431 304.54806424 -94.50756836 302.91430664 C-92.06112738 298.71206384 -89.76235067 294.48159222 -87.62207031 290.11572266 C-86.64532149 288.15386412 -85.62062293 286.22630071 -84.57421875 284.30078125 C-80.14820778 276.1461116 -76.06958191 267.92940901 -72.39160156 259.40869141 C-70.87961228 255.90626585 -69.31901028 252.46573124 -67.578125 249.0703125 C-65.80015335 245.56386489 -64.42536531 242.01741696 -63.15234375 238.29296875 C-61.76061689 234.30335174 -60.36301928 230.33472285 -58.77734375 226.41796875 C-58.45894531 225.63035156 -58.14054687 224.84273437 -57.8125 224.03125 C-57.16841781 222.44164649 -56.52403114 220.85216591 -55.87841797 219.26318359 C-48.15770907 202.20942564 -48.15770907 202.20942564 -44.65234375 184.16796875 C-44.89726562 184.81378906 -45.1421875 185.45960938 -45.39453125 186.125 C-49.06793878 195.38452037 -53.68339723 204.06107011 -58.39453125 212.82568359 C-59.57056957 215.01568973 -60.7383882 217.20980352 -61.90234375 219.40625 C-63.80743554 222.99978476 -65.72662676 226.5854412 -67.65234375 230.16796875 C-68.1009375 231.00585938 -68.54953125 231.84375 -69.01171875 232.70703125 C-71.76949504 237.77489288 -74.82407427 242.61073576 -77.953125 247.45703125 C-79.51259577 249.9450145 -80.94535847 252.45995294 -82.33984375 255.04296875 C-84.15494749 258.39347172 -86.24948547 261.20444354 -88.65234375 264.16796875 C-89.08546875 265.05484375 -89.51859375 265.94171875 -89.96484375 266.85546875 C-92.39496778 271.62571222 -95.54248771 275.82058237 -98.65234375 280.16796875 C-99.8412853 281.87529913 -101.02881452 283.58361399 -102.21484375 285.29296875 C-104.76390395 288.93529255 -107.38219769 292.51124815 -110.06640625 296.0546875 C-111.89365857 298.48952372 -113.67978056 300.95204153 -115.46484375 303.41796875 C-116.86023783 305.33495523 -118.25609799 307.25160251 -119.65234375 309.16796875 C-120.04953613 309.71694824 -120.44672852 310.26592773 -120.85595703 310.83154297 C-122.07337118 312.51095018 -123.29942757 314.18373044 -124.52734375 315.85546875 C-125.26726562 316.86996094 -126.0071875 317.88445312 -126.76953125 318.9296875 C-127.70152344 320.03763672 -127.70152344 320.03763672 -128.65234375 321.16796875 C-129.31234375 321.16796875 -129.97234375 321.16796875 -130.65234375 321.16796875 C-130.83796875 321.82796875 -131.02359375 322.48796875 -131.21484375 323.16796875 C-132.93799932 326.7641195 -135.21827582 329.2798385 -137.8984375 332.203125 C-139.70382915 334.15297916 -139.70382915 334.15297916 -141.25 336.4140625 C-141.94416016 337.28224609 -141.94416016 337.28224609 -142.65234375 338.16796875 C-143.31234375 338.16796875 -143.97234375 338.16796875 -144.65234375 338.16796875 C-144.91917969 338.75320313 -145.18601562 339.3384375 -145.4609375 339.94140625 C-146.67765434 342.21527051 -147.99283698 343.87962789 -149.71484375 345.79296875 C-150.34390625 346.49550781 -150.97296875 347.19804687 -151.62109375 347.921875 C-152.29140625 348.66308594 -152.96171875 349.40429688 -153.65234375 350.16796875 C-154.30203125 350.89886719 -154.95171875 351.62976563 -155.62109375 352.3828125 C-165.30964211 363.2462781 -175.25319185 373.85654255 -185.52734375 384.16796875 C-186.21634766 384.86156494 -186.90535156 385.55516113 -187.61523438 386.26977539 C-191.53438223 390.17713563 -195.56017215 393.89683942 -199.75048828 397.51123047 C-202.62019888 400.01108363 -205.37890887 402.62501695 -208.15234375 405.23046875 C-212.77936146 409.54188641 -217.49312118 413.50056957 -222.65234375 417.16796875 C-224.32318194 418.4960709 -225.98964088 419.82969571 -227.65234375 421.16796875 C-239.66180369 430.63600771 -251.92024155 439.69561926 -264.65234375 448.16796875 C-265.82457996 448.95649453 -266.99644063 449.74557883 -268.16796875 450.53515625 C-275.22177878 455.27831622 -282.31023528 459.87889192 -289.65234375 464.16796875 C-294.85544175 467.25159392 -300.00986042 470.38474089 -305.08984375 473.66796875 C-309.41443369 476.43090121 -313.8014667 478.9638275 -318.328125 481.37890625 C-320.96551765 482.79832556 -323.58297144 484.2425776 -326.1953125 485.70703125 C-336.11434906 491.25490118 -346.05804286 496.59122842 -356.45996094 501.18115234 C-358.77769363 502.22439015 -361.05956767 503.3309193 -363.34765625 504.4375 C-372.61473418 508.73233809 -380.75640315 510.88532632 -391.02734375 510.91796875 C-391.99623535 510.92119141 -392.96512695 510.92441406 -393.96337891 510.92773438 C-399.67743794 510.74675063 -403.1278243 509.94302793 -407.65234375 506.16796875 C-408.27882813 505.719375 -408.9053125 505.27078125 -409.55078125 504.80859375 C-413.21340543 501.35913817 -414.06367093 498.23721307 -414.30517578 493.20605469 C-414.31661621 492.49223633 -414.32805664 491.77841797 -414.33984375 491.04296875 C-414.35901855 490.34977539 -414.37819336 489.65658203 -414.39794922 488.94238281 C-414.31176557 485.16663196 -413.78649186 483.33665236 -411.421875 480.36328125 C-407.14901653 476.97633279 -403.83279877 474.90452142 -398.40234375 474.10546875 C-396.81292969 473.86570312 -396.81292969 473.86570312 -395.19140625 473.62109375 C-392.08342329 473.22316216 -388.97479704 472.89005132 -385.85766602 472.57397461 C-357.85045028 469.63224734 -329.81059022 460.54143413 -305.89453125 445.5234375 C-303.59514167 444.1333884 -301.26072664 442.9570035 -298.83984375 441.79296875 C-292.5060244 438.69533523 -286.61949671 434.91043402 -280.65234375 431.16796875 C-278.44508811 429.81204618 -276.23676721 428.45785606 -274.02734375 427.10546875 C-263.11792371 420.45591522 -263.11792371 420.45591522 -252.58984375 413.23046875 C-249.65234375 411.16796875 -249.65234375 411.16796875 -247.65234375 411.16796875 C-247.65234375 410.50796875 -247.65234375 409.84796875 -247.65234375 409.16796875 C-249.37130859 409.00554687 -249.37130859 409.00554687 -251.125 408.83984375 C-255.6837163 408.26611752 -259.78564805 406.98829285 -264.08984375 405.41796875 C-264.8362915 405.14919922 -265.58273926 404.88042969 -266.35180664 404.60351562 C-271.78368477 402.59833666 -276.73746578 400.23857916 -281.65234375 397.16796875 C-282.41160156 396.74128906 -283.17085937 396.31460937 -283.953125 395.875 C-313.98141493 378.77755262 -338.6192894 349.11315181 -347.86645508 315.66650391 C-355.63594 286.29343087 -352.76316337 254.9744106 -340.65234375 227.16796875 C-340.24113281 226.19214844 -339.82992187 225.21632812 -339.40625 224.2109375 C-335.09146929 214.32230892 -330.07180984 204.84292293 -323.65234375 196.16796875 C-323.06582031 195.11222656 -322.47929687 194.05648437 -321.875 192.96875 C-319.51715419 188.78850762 -316.69099213 185.03582563 -313.77734375 181.23046875 C-313.27332031 180.56595703 -312.76929688 179.90144531 -312.25 179.21679688 C-311.23456529 177.87803321 -310.21723972 176.54070157 -309.19799805 175.20483398 C-307.10928865 172.45233004 -305.05322731 169.67583807 -302.99975586 166.89697266 C-301.08199095 164.43609006 -298.91313285 162.31281995 -296.65234375 160.16796875 C-293.84575495 157.43334376 -291.18214031 154.65714014 -288.65234375 151.66796875 C-284.04359784 146.25618377 -279.0368917 141.80132375 -273.4609375 137.41015625 C-270.47731842 135.0282406 -267.56572693 132.57265811 -264.65234375 130.10546875 C-241.93424662 111.06789706 -214.78987789 97.38579186 -187.65234375 85.85546875 C-186.50487671 85.36699463 -186.50487671 85.36699463 -185.33422852 84.86865234 C-180.85428605 82.99441556 -176.3465018 81.35859928 -171.72851562 79.8581543 C-168.90973379 78.92110159 -166.16061451 77.83161087 -163.40234375 76.73046875 C-157.99277566 74.6281424 -152.54968206 72.84885966 -146.9921875 71.18359375 C-141.62314082 69.55090119 -136.3133448 67.74426041 -130.99462891 65.95556641 C-105.56966237 57.40637503 -105.56966237 57.40637503 -97.77734375 55.04296875 C-86.06241799 51.48163132 -74.56833549 47.87232975 -63.52734375 42.53125 C-60.9316125 41.30039374 -58.3390221 40.2422787 -55.65234375 39.23046875 C-41.05202035 33.48956489 -27.18886179 24.70448679 -16.08984375 13.60546875 C-13.65234375 11.16796875 -13.65234375 11.16796875 -10.65234375 8.73046875 C-8.33313661 6.74947932 -6.86504345 5.22611161 -5.08984375 2.85546875 C-2.65234375 0.16796875 -2.65234375 0.16796875 0 0 Z M-41.65234375 176.16796875 C-40.65234375 178.16796875 -40.65234375 178.16796875 -40.65234375 178.16796875 Z M-42.65234375 178.16796875 C-41.65234375 181.16796875 -41.65234375 181.16796875 -41.65234375 181.16796875 Z " fill="#008000" transform="translate(441.65234375,0.83203125)"/>
</svg>
